<svg xmlns="http://www.w3.org/2000/svg" viewBox="-0.0005 0 980.236 300.0003" width="980.236px" height="300px">
  <path d="M 671.212 167.437 C 671.212 167.437 760.776 167.321 760.776 167.437 C 760.776 167.437 760.776 191.561 760.776 231.627 C 760.776 271.693 727.814 300 697.404 300 C 666.994 300 499.63 300 499.63 300 C 499.63 300 469.367 235.664 469.367 235.804 C 469.367 235.944 439.63 299.745 439.63 299.745 C 439.63 299.745 392.506 299.606 392.506 299.745 C 360.591 265.133 316.478 133.501 324.574 5.262 C 324.574 5.262 386.862 5.154 386.862 5.262 C 383.925 61.938 386.135 146.49 420.501 199.123 C 420.562 199.221 447.816 151.813 447.937 151.813 C 447.937 151.813 490.249 151.674 490.249 151.813 C 490.249 151.954 522.134 198.705 522.134 198.705 C 522.134 198.705 522.028 0 522.134 0 C 522.134 0 587.795 0.116 587.795 0 C 587.795 0 587.674 40.218 587.795 39.988 C 597.088 35.739 603.095 35.042 612.22 35.052 C 612.22 35.052 649.966 35.052 694.232 35.052 C 738.496 35.052 760.949 75.274 760.949 103.205 C 760.949 131.137 760.949 139.832 760.949 139.718 L 718.134 139.718 C 718.134 139.718 718.134 132.882 718.134 116.526 C 718.134 100.169 704.485 73.928 681.972 73.928 C 659.459 73.928 627.647 73.656 626.836 73.928 C 608.46 73.814 590.276 91.082 589.611 118.217 C 589.611 118.217 589.429 260.909 589.611 260.909 C 589.611 260.909 648.332 260.909 681.505 260.909 C 714.677 260.909 729.014 207.069 706.388 207.069 C 706.388 207.069 671.432 207.249 671.432 207.069 C 671.432 206.886 670.89 167.764 671.212 167.437 Z"/>
  <path d="M 163.257 5.517 C 170.607 12.864 170.607 24.745 163.257 32.054 L 45.317 149.999 L 163.257 267.943 C 173.457 278.177 168.807 295.616 154.867 299.365 C 148.367 301.088 141.437 299.252 136.717 294.489 L 5.467 163.272 C -1.823 155.963 -1.823 144.081 5.467 136.725 L 136.717 5.517 C 144.027 -1.839 155.947 -1.839 163.257 5.517"/>
  <path d="M 816.97 5.517 C 809.614 12.863 809.614 24.745 816.97 32.053 L 934.943 149.999 L 816.97 267.943 C 806.726 278.177 811.413 295.616 825.368 299.366 C 831.853 301.088 838.745 299.252 843.507 294.49 L 974.723 163.271 C 982.073 155.963 982.073 144.081 974.723 136.725 L 843.507 5.517 C 836.198 -1.839 824.279 -1.839 816.97 5.517"/>
  <path d="M 274.51 20.461 L 196.381 273.62 C 190.6 293.245 217.279 299.173 222.44 280.188 L 297.918 26.166 C 302.762 7.263 279.497 2.431 274.51 20.461 Z"/>
</svg>