<?xml version="1.0" encoding="utf-8"?>
<svg
  id="wg_logo"
  fill="currentColor"
  xmlns="http://www.w3.org/2000/svg"
  viewBox="0 0 500 500">
  <path 
  style="" 
  d="M 372.97 258.801 C 372.97 258.801 459.631 258.689 459.631 258.801 C 459.631 258.801 459.631 282.144 459.631 320.911 C 459.631 359.678 427.737 387.068 398.313 387.068 C 368.889 387.068 206.949 387.068 206.949 387.068 C 206.949 387.068 177.665 324.817 177.665 324.952 C 177.665 325.087 148.892 386.821 148.892 386.821 C 148.892 386.821 103.296 386.686 103.296 386.821 C 72.415 353.331 29.732 225.965 37.566 101.882 C 37.566 101.882 97.834 101.777 97.834 101.882 C 94.993 156.722 97.131 238.533 130.384 289.459 C 130.443 289.556 156.814 243.684 156.931 243.684 C 156.931 243.684 197.871 243.548 197.871 243.684 C 197.871 243.82 228.723 289.056 228.723 289.056 C 228.723 289.056 228.62 96.791 228.723 96.791 C 228.723 96.791 292.256 96.902 292.256 96.791 C 292.256 96.791 292.139 135.705 292.256 135.482 C 301.247 131.371 307.06 130.697 315.89 130.706 C 315.89 130.706 352.413 130.706 395.244 130.706 C 438.074 130.706 459.799 169.624 459.799 196.651 C 459.799 223.678 459.799 232.091 459.799 231.98 L 418.371 231.98 C 418.371 231.98 418.371 225.365 418.371 209.539 C 418.371 193.714 405.165 168.322 383.382 168.322 C 361.598 168.322 330.818 168.06 330.032 168.322 C 312.252 168.212 294.657 184.921 294.013 211.176 C 294.013 211.176 293.837 349.244 294.013 349.244 C 294.013 349.244 350.83 349.244 382.928 349.244 C 415.026 349.244 428.899 297.148 407.006 297.148 C 407.006 297.148 373.183 297.323 373.183 297.148 C 373.183 296.972 372.658 259.118 372.97 258.801 Z"/>
</svg>
