<?xml version="1.0" encoding="utf-8"?>
<svg
  id="wg_noticias_logo" 
  fill="currentColor" 
  xmlns="http://www.w3.org/2000/svg"
  viewBox="-745.273 103.8356 2061.3283 243.3243"
  >
    <path d="M 2713.36 344.015 L 2893.36 344.015 C 2929.46 344.015 2959.56 377.815 2959.56 416.415 L 2909.56 416.415 C 2909.56 405.415 2900.16 394.615 2888.36 394.615 L 2717.36 394.615 C 2686.36 394.615 2685.86 436.615 2717.36 436.615 L 2888.36 436.615 C 2985.76 436.615 2981.16 578.619 2888.36 578.619 L 2709.36 578.619 C 2678.16 578.619 2644.36 546.719 2644.36 507.619 L 2693.36 507.619 C 2693.36 518.319 2703.46 528.119 2712.36 528.119 L 2887.36 528.119 C 2915.96 528.119 2916.16 486.619 2887.36 486.619 L 2712.36 486.619 C 2621.96 486.619 2618.36 344.015 2713.36 344.015 Z" transform="translate(-1643.64 -236.62)" />
    <path d="M 2325.36 414.915 C 2325.36 383.815 2349.26 343.715 2397.36 343.715 L 2551.86 343.715 C 2591.46 343.715 2620.36 382.515 2620.36 412.615 L 2620.36 578.619 L 2569.26 578.619 L 2569.26 509.519 L 2376.16 509.519 L 2376.16 578.619 L 2325.36 578.619 L 2325.36 414.915 Z M 2375.96 458.615 L 2569.36 458.615 L 2569.36 414.615 C 2569.36 404.815 2560.06 394.415 2548.36 394.415 L 2396.16 394.415 C 2383.36 394.415 2375.86 404.615 2375.86 413.115 L 2375.96 458.615 Z" transform="translate(-1643.64 -236.62)" />
    <path d="M 1890.36 343.615 L 1890.36 579.619 L 1840.36 579.619 L 1840.36 343.615 L 1890.36 343.615 Z" transform="translate(-1643.64 -236.62)" />
    <path d="M 2288.36 343.615 L 2288.36 579.619 L 2238.36 579.619 L 2238.36 343.615 L 2288.36 343.615 Z" transform="translate(-1643.64 -236.62)" />
    <path d="M 1528.36 343.715 L 1823.36 343.715 L 1823.36 394.615 L 1701.26 394.615 L 1701.26 578.519 L 1650.26 578.519 L 1650.26 394.715 L 1528.46 394.715 L 1528.36 343.715 Z" transform="translate(-1643.64 -236.62)" />
    <path d="M 898.367 578.619 L 898.367 373.615 C 898.367 340.515 940.067 330.315 961.367 351.615 L 1142.36 535.619 L 1142.36 343.615 L 1193.26 343.615 L 1192.36 541.819 C 1192.36 590.119 1129.46 595.319 1098.86 564.619 L 948.367 408.615 L 948.367 578.619 L 898.367 578.619 Z" transform="translate(-1643.64 -236.62)" />
    <path d="M 1294.96 344.615 L 1445.86 344.615 C 1495.26 344.615 1515.36 385.515 1515.36 414.315 L 1515.36 508.819 C 1515.36 544.119 1481.56 578.619 1443.96 578.619 L 1293.06 578.619 C 1257.76 578.619 1220.36 553.919 1220.36 500.619 L 1220.36 420.315 C 1220.36 379.415 1248.66 344.615 1294.96 344.615 Z M 1271.36 416.015 L 1271.36 504.719 C 1271.36 523.319 1279.66 528.619 1296.26 528.619 L 1443.46 528.619 C 1459.76 528.619 1464.36 518.419 1464.36 506.719 L 1464.36 416.015 C 1464.36 407.515 1460.06 395.015 1443.46 395.015 L 1296.26 395.015 C 1279.16 395.015 1271.36 402.015 1271.36 416.015 Z" transform="translate(-1643.64 -236.62)" />
    <path d="M 1984.36 343.915 L 2145.36 343.915 C 2191.66 343.915 2214.36 385.015 2214.36 417.615 L 2164.36 417.615 C 2164.36 406.615 2157.86 394.515 2142.16 394.515 L 1991.36 394.515 C 1979.86 394.515 1970.36 402.815 1970.36 414.615 L 1970.36 506.619 C 1970.36 521.019 1981.36 527.619 1992.36 527.619 L 2144.46 527.619 C 2152.16 527.619 2164.36 518.119 2164.36 505.619 L 2214.36 505.619 C 2214.36 549.919 2176.26 578.019 2149.36 578.019 L 1987.36 578.019 C 1956.36 578.019 1919.36 547.719 1919.36 506.619 L 1919.36 415.515 C 1919.36 389.915 1941.46 343.915 1984.36 343.915 Z" transform="translate(-1643.64 -236.62)" />
</svg>